<?xml version="1.0" encoding="UTF-8" standalone="no"?>
<!-- Created with Inkscape (http://www.inkscape.org/) -->

<svg
   xmlns:dc="http://purl.org/dc/elements/1.1/"
   xmlns:cc="http://creativecommons.org/ns#"
   xmlns:rdf="http://www.w3.org/1999/02/22-rdf-syntax-ns#"
   xmlns:svg="http://www.w3.org/2000/svg"
   xmlns="http://www.w3.org/2000/svg"
   xmlns:sodipodi="http://sodipodi.sourceforge.net/DTD/sodipodi-0.dtd"
   xmlns:inkscape="http://www.inkscape.org/namespaces/inkscape"
   width="169.33333mm"
   height="169.33333mm"
   viewBox="0 0 169.33333 169.33333"
   version="1.1"
   id="svg8"
   sodipodi:docname="email.svg"
   inkscape:version="0.92.4 (5da689c313, 2019-01-14)">
  <defs
     id="defs2" />
  <sodipodi:namedview
     id="base"
     pagecolor="#f0f0ed"
     bordercolor="#666666"
     borderopacity="1.0"
     inkscape:pageopacity="0"
     inkscape:pageshadow="2"
     inkscape:zoom="0.98994949"
     inkscape:cx="388.12587"
     inkscape:cy="262.85522"
     inkscape:document-units="mm"
     inkscape:current-layer="layer1"
     showgrid="false"
     inkscape:window-width="1440"
     inkscape:window-height="847"
     inkscape:window-x="1358"
     inkscape:window-y="-8"
     inkscape:window-maximized="1" />
  <metadata
     id="metadata5">
    <rdf:RDF>
      <cc:Work
         rdf:about="">
        <dc:format>image/svg+xml</dc:format>
        <dc:type
           rdf:resource="http://purl.org/dc/dcmitype/StillImage" />
        <dc:title></dc:title>
      </cc:Work>
    </rdf:RDF>
  </metadata>
  <g
     inkscape:label="Layer 1"
     inkscape:groupmode="layer"
     id="layer1"
     transform="translate(66.077152,-73.925459)">
    <g
       id="g3961"
       transform="translate(-6.6201467,108.32395)">
      <path
         style="fill:#fdfdfd;stroke-width:0.26458332"
         d="M -59.457005,50.268174 V -34.398491 H 25.20966 109.87632 V 50.268174 134.93484 H 25.20966 -59.457005 Z"
         id="path3965"
         inkscape:connector-curvature="0" />
      <path
         style="fill:#2d2c2e;stroke-width:0.26458332"
         d="m -33.089957,90.265569 c -0.403362,-0.445709 -0.437882,-3.616161 -0.437882,-40.216666 0,-39.380035 0.0047,-39.737511 0.529167,-40.2619782 0.526023,-0.5260234 0.881943,-0.5291667 59.928124,-0.5291667 59.04618,0 59.4021,0.00315 59.928123,0.5291667 0.524473,0.5244732 0.529167,0.8819432 0.529167,40.3079502 0,38.201019 -0.01918,39.796153 -0.483854,40.216665 -0.447215,0.404723 -4.992243,0.437883 -60.019408,0.437883 -57.34106,0 -59.551696,-0.01783 -59.973437,-0.483854 z M 78.21241,86.025285 C 78.863042,85.485287 78.502804,85.033336 74.886916,81.853192 73.10333,80.284544 70.691534,78.101168 69.527367,77.00125 68.363201,75.901332 65.855901,73.633377 63.955589,71.961348 62.055278,70.289321 57.542822,66.242392 53.92791,62.968174 43.987414,53.964535 43.738616,53.751585 42.959899,53.580551 c -1.085437,-0.2384 -2.018945,0.234519 -3.820091,1.935276 -0.894863,0.844989 -3.858358,3.522287 -6.585542,5.949553 -3.640167,3.239844 -5.1366,4.41321 -5.628307,4.41321 -0.40517,0 -1.11171,-0.400092 -1.788356,-1.012692 C 16.876809,57.387008 12.872248,53.89591 12.308175,53.68145 c -1.542791,-0.586568 -1.009642,-0.989428 -12.64023062,9.551307 -3.61275568,3.274219 -7.70795528,6.952922 -9.10044408,8.174895 -1.3924893,1.221972 -4.4367983,3.962423 -6.7651313,6.08989 -2.328333,2.127465 -5.156067,4.684371 -6.283854,5.682012 -2.141789,1.894634 -2.497569,2.643928 -1.455208,3.064774 0.351176,0.141785 21.3302712,0.219668 51.156226,0.189913 42.09426,-0.042 50.633251,-0.110477 50.992877,-0.408956 z M -23.168166,78.644736 c 2.554571,-2.291953 6.229792,-5.595937 8.167156,-7.342187 1.937363,-1.74625 4.329183,-3.889375 5.3151559,-4.7625 C -5.4470837,62.786418 4.5643578,53.721862 5.9612229,52.372876 7.2253703,51.15206 7.482577,50.751983 7.482577,50.006459 c 0,-1.035315 0.1949186,-0.837809 -8.8353713,-8.952648 -3.1859669,-2.862985 -7.8446549,-7.050897 -10.3526457,-9.30647 -17.690761,-15.910274 -16.532293,-14.928492 -17.029035,-14.431793 -0.388411,0.388379 -0.43411,3.355793 -0.497025,32.275094 -0.04457,20.48682 0.02387,32.092439 0.191889,32.534336 0.149471,0.393144 0.467664,0.686945 0.743971,0.686945 0.265538,0 2.572904,-1.875234 5.127474,-4.167187 z m 106.066681,3.480242 c 0.16801,-0.441897 0.23646,-12.047516 0.191889,-32.534336 -0.06298,-28.94834 -0.10831,-31.88641 -0.49797,-32.276036 -0.395176,-0.395147 -0.612304,-0.263982 -2.778125,1.678221 -1.292193,1.158774 -7.165861,6.437352 -13.052597,11.730169 -5.886735,5.292818 -11.83986,10.620565 -13.229166,11.839445 -5.384808,4.724244 -7.15622,6.528425 -7.15622,7.288599 0,0.394078 0.111744,0.925301 0.24832,1.180494 0.136575,0.255193 2.962452,2.896507 6.279729,5.869585 3.317274,2.973078 6.747639,6.071926 7.623034,6.886326 0.875393,0.814404 3.386003,3.076591 5.579132,5.027084 2.193131,1.950495 5.943599,5.321675 8.334374,7.49151 5.499248,4.991042 7.316983,6.505884 7.806738,6.505884 0.214328,0 0.507217,-0.309126 0.650862,-0.686945 z M 28.12735,60.13614 c 0.359802,-0.247931 2.723483,-2.301759 5.252627,-4.564062 2.529144,-2.262304 6.517738,-5.825157 8.863542,-7.91745 2.345804,-2.092293 5.040328,-4.533075 5.98783,-5.423958 0.947502,-0.890884 3.148394,-2.869944 4.890868,-4.397912 1.742477,-1.527969 4.539123,-4.037661 6.214771,-5.577097 1.675646,-1.539433 4.841558,-4.396933 7.035358,-6.35 10.171054,-9.054943 11.638055,-10.415277 11.87668,-11.013125 0.192506,-0.482301 0.160086,-0.698878 -0.132292,-0.883806 -0.521234,-0.329673 -101.853331,-0.329673 -102.374565,0 -0.727493,0.460134 0.0568,1.455751 3.694575,4.690062 7.755001,6.894894 12.1092436,10.804226 13.6260416,12.233754 0.873125,0.822891 3.6115625,3.277621 6.08541658,5.45496 2.47385412,2.177335 5.33135402,4.740997 6.34999992,5.697024 1.0186458,0.956027 4.0416241,3.694464 6.7177309,6.085416 2.676104,2.390952 6.664698,5.956895 8.863542,7.924316 2.19884,1.96742 4.292277,3.783123 4.652078,4.034896 0.826783,0.578543 1.563225,0.580689 2.395797,0.007 z"
         id="path3963"
         inkscape:connector-curvature="0" />
    </g>
  </g>
</svg>
