<?xml version="1.0" encoding="UTF-8" standalone="no"?>
<!-- Created with Inkscape (http://www.inkscape.org/) -->

<svg
   xmlns:dc="http://purl.org/dc/elements/1.1/"
   xmlns:cc="http://creativecommons.org/ns#"
   xmlns:rdf="http://www.w3.org/1999/02/22-rdf-syntax-ns#"
   xmlns:svg="http://www.w3.org/2000/svg"
   xmlns="http://www.w3.org/2000/svg"
   xmlns:sodipodi="http://sodipodi.sourceforge.net/DTD/sodipodi-0.dtd"
   xmlns:inkscape="http://www.inkscape.org/namespaces/inkscape"
   width="169.33333mm"
   height="169.33333mm"
   viewBox="0 0 169.33333 169.33333"
   version="1.1"
   id="svg8"
   sodipodi:docname="github.svg"
   inkscape:version="0.92.4 (5da689c313, 2019-01-14)">
  <defs
     id="defs2" />
  <sodipodi:namedview
     id="base"
     pagecolor="#f0f0ed"
     bordercolor="#666666"
     borderopacity="1.0"
     inkscape:pageopacity="0"
     inkscape:pageshadow="2"
     inkscape:zoom="0.98994949"
     inkscape:cx="499.89384"
     inkscape:cy="297.76557"
     inkscape:document-units="mm"
     inkscape:current-layer="layer1"
     showgrid="false"
     inkscape:window-width="1440"
     inkscape:window-height="847"
     inkscape:window-x="1358"
     inkscape:window-y="-8"
     inkscape:window-maximized="1" />
  <metadata
     id="metadata5">
    <rdf:RDF>
      <cc:Work
         rdf:about="">
        <dc:format>image/svg+xml</dc:format>
        <dc:type
           rdf:resource="http://purl.org/dc/dcmitype/StillImage" />
        <dc:title></dc:title>
      </cc:Work>
    </rdf:RDF>
  </metadata>
  <g
     inkscape:label="Layer 1"
     inkscape:groupmode="layer"
     id="layer1"
     transform="translate(0.19557892,-22.116495)">
    <path
       style="fill:#fefefe;stroke-width:0.26458332"
       d="M -0.19557892,106.78316 V 22.116495 H 84.471086 169.13775 v 84.666665 84.66666 h -32.12568 -32.12569 l 0.0579,-3.10885 c 0.0389,-2.09019 -0.0569,-3.39301 -0.29239,-3.97607 -0.27546,-0.68204 -0.34589,-3.70727 -0.32985,-14.16785 0.013,-8.48581 -0.0777,-13.55863 -0.25055,-14.01331 -0.14902,-0.39196 -0.20582,-0.88238 -0.12622,-1.08982 0.4168,-1.08615 -1.70253,-6.24139 -3.02241,-7.352 -2.311016,-1.94459 -1.431836,-3.96493 1.78758,-4.10778 2.17035,-0.0963 3.24471,-0.23951 3.98567,-0.53124 0.3638,-0.14324 0.80319,-0.21044 0.97642,-0.14934 0.17322,0.0611 0.76853,-0.0237 1.32291,-0.18834 0.92395,-0.27448 3.21755,-0.85511 4.84442,-1.22637 1.08296,-0.24714 7.42601,-3.39777 8.99583,-4.46829 1.83674,-1.25253 3.46634,-2.74829 6.47773,-5.94574 1.0312,-1.09491 3.35462,-4.61759 3.76809,-5.71303 0.15969,-0.42309 0.71613,-1.84082 1.23653,-3.15051 1.10544,-2.78206 1.69034,-5.21444 1.84507,-7.67291 0.0366,-0.58208 0.16723,-1.35599 0.2902,-1.71979 0.32876,-0.97255 0.50774,-10.39496 0.25884,-13.626045 -0.20433,-2.652318 -1.03325,-6.065078 -1.81605,-7.476852 -0.22117,-0.398878 -0.58089,-1.177708 -0.79937,-1.730735 -0.41417,-1.048359 -2.65658,-4.484156 -4.26521,-6.535121 -1.01174,-1.289952 -1.04536,-1.741149 -0.38442,-5.159375 0.35096,-1.815095 0.37345,-10.405583 0.0296,-11.308641 -0.15189,-0.398917 -0.21103,-0.89503 -0.13143,-1.102473 0.161,-0.419553 -0.57747,-3.337836 -1.12158,-4.432295 -0.31348,-0.63055 -0.52264,-0.714034 -2.00906,-0.801881 -0.91253,-0.05393 -2.01633,0.03897 -2.45289,0.206436 -0.43657,0.167471 -0.94437,0.249907 -1.12846,0.183192 -0.37613,-0.136305 -2.69537,0.506408 -4.69238,1.300364 -1.932,0.768109 -8.45941,4.188907 -10.42591,5.463871 -1.75622,1.138623 -2.96771,1.383323 -4.03111,0.814212 -0.29238,-0.156479 -1.12769,-0.334039 -1.85623,-0.394578 -0.72855,-0.06054 -1.45658,-0.191619 -1.61786,-0.291293 -0.308306,-0.190548 -1.300626,-0.31374 -3.503136,-0.434904 -0.729255,-0.04012 -1.491276,-0.175135 -1.693375,-0.30004 -0.46776,-0.289091 -2.034675,-0.340712 -10.342163,-0.340712 -8.307488,0 -9.874403,0.05162 -10.342163,0.340712 -0.202099,0.124905 -0.96412,0.259924 -1.693376,0.30004 -2.20251,0.121164 -3.194827,0.244356 -3.503141,0.434904 -0.161274,0.09967 -0.88931,0.230756 -1.617856,0.291293 -0.728546,0.06054 -1.563851,0.238099 -1.856234,0.394578 -1.063395,0.569111 -2.274893,0.324411 -4.031105,-0.814212 -1.966507,-1.274964 -8.493918,-4.695762 -10.425916,-5.463871 -1.997009,-0.793956 -4.316249,-1.436669 -4.692378,-1.300364 -0.184089,0.06672 -0.691893,-0.01572 -1.128455,-0.183192 -0.436563,-0.167468 -1.540368,-0.260363 -2.452897,-0.206436 -1.486413,0.08785 -1.695577,0.171331 -2.009058,0.801881 -0.544113,1.094459 -1.282578,4.012742 -1.121582,4.432295 0.07961,0.207443 0.02045,0.703556 -0.131432,1.102473 -0.343847,0.903058 -0.32136,9.493546 0.0296,11.308641 0.66094,3.418226 0.627322,3.869423 -0.384421,5.159375 -1.608627,2.050965 -3.851032,5.486762 -4.265205,6.535121 -0.218485,0.553027 -0.578202,1.331857 -0.79937,1.730735 -0.783576,1.413174 -1.61314,4.830402 -1.815078,7.476852 -0.248992,3.263105 -0.07557,12.901685 0.249922,13.890625 0.11974,0.3638 0.251185,1.07818 0.292098,1.5875 0.178781,2.22557 0.764524,4.78331 1.540862,6.7284 0.352544,0.88328 0.894564,2.28549 1.204489,3.11602 0.616058,1.65088 2.766139,5.10479 4.07316,6.54317 2.066549,2.27423 4.246731,4.31607 6.118076,5.72985 1.462699,1.10505 8.497343,4.60004 9.28869,4.61485 0.275492,0.005 0.79855,0.17953 1.162352,0.3875 0.363802,0.20797 0.996706,0.38234 1.406456,0.3875 0.409749,0.005 0.959861,0.12436 1.222467,0.26491 0.438875,0.23488 2.210512,0.6122 4.514827,0.96157 0.509322,0.0772 1.512649,0.13219 2.229614,0.12216 1.41288,-0.0198 3.435186,0.7829 3.697997,1.46778 0.18338,0.47788 -0.338532,1.52223 -1.307801,2.61691 -1.325513,1.49701 -3.03231,5.69874 -3.03231,7.46482 0,1.38213 -2.458755,2.91436 -5.688542,3.54495 -0.727604,0.14206 -1.771811,0.43165 -2.320459,0.64353 -2.345714,0.9059 -5.624238,0.30503 -10.114957,-1.8538 -2.982161,-1.43361 -4.85701,-3.11106 -6.862215,-6.13971 -0.850958,-1.28528 -2.69117,-3.50516 -4.089366,-4.93307 -3.454976,-3.52841 -5.363974,-4.42777 -9.421336,-4.43858 -1.018646,-0.003 -1.94138,0.001 -2.050521,0.009 -0.10914,0.008 -0.198437,0.26999 -0.198437,0.58271 0,0.64396 1.436839,2.14048 3.03063,3.15651 2.736638,1.7446 6.214163,6.26935 8.21948,10.6947 0.527534,1.16417 1.154461,2.5159 1.393168,3.00384 0.420791,0.86015 3.000949,3.63948 4.774377,5.14293 1.376553,1.16699 4.446551,2.45695 6.79172,2.85374 1.842809,0.3118 11.236642,0.33485 12.040015,0.0296 0.583641,-0.22181 3.022269,-0.0436 3.274705,0.23932 0.05286,0.0592 0.289843,0.48874 0.526629,0.95446 0.365493,0.71885 0.430525,1.90525 0.430525,7.85413 0,4.53257 -0.104209,7.27043 -0.295068,7.7522 -0.288108,0.72726 -0.379291,1.80738 -0.459338,5.44118 l -0.03934,1.78595 H 31.819004 -0.19557892 Z"
       id="path3868"
       inkscape:connector-curvature="0" />
  </g>
</svg>
