<?xml version="1.0" encoding="UTF-8" standalone="no"?>
<!-- Created with Inkscape (http://www.inkscape.org/) -->

<svg
   xmlns:dc="http://purl.org/dc/elements/1.1/"
   xmlns:cc="http://creativecommons.org/ns#"
   xmlns:rdf="http://www.w3.org/1999/02/22-rdf-syntax-ns#"
   xmlns:svg="http://www.w3.org/2000/svg"
   xmlns="http://www.w3.org/2000/svg"
   xmlns:sodipodi="http://sodipodi.sourceforge.net/DTD/sodipodi-0.dtd"
   xmlns:inkscape="http://www.inkscape.org/namespaces/inkscape"
   width="169.33333mm"
   height="169.33333mm"
   viewBox="0 0 169.33333 169.33333"
   version="1.1"
   id="svg8"
   sodipodi:docname="gamejolt.svg"
   inkscape:version="0.92.4 (5da689c313, 2019-01-14)">
  <defs
     id="defs2" />
  <sodipodi:namedview
     id="base"
     pagecolor="#f0f0ed"
     bordercolor="#666666"
     borderopacity="1.0"
     inkscape:pageopacity="0"
     inkscape:pageshadow="2"
     inkscape:zoom="11.2"
     inkscape:cx="423.31112"
     inkscape:cy="450.91638"
     inkscape:document-units="mm"
     inkscape:current-layer="layer1"
     showgrid="false"
     inkscape:window-width="1440"
     inkscape:window-height="847"
     inkscape:window-x="1358"
     inkscape:window-y="-8"
     inkscape:window-maximized="1" />
  <metadata
     id="metadata5">
    <rdf:RDF>
      <cc:Work
         rdf:about="">
        <dc:format>image/svg+xml</dc:format>
        <dc:type
           rdf:resource="http://purl.org/dc/dcmitype/StillImage" />
        <dc:title></dc:title>
      </cc:Work>
    </rdf:RDF>
  </metadata>
  <g
     inkscape:label="Layer 1"
     inkscape:groupmode="layer"
     id="layer1"
     transform="translate(1.0468238,-96.479896)">
    <path
       style="fill:#cef72d;stroke-width:0.26458332"
       d="M -1.0468238,181.14656 V 96.479896 H 83.619839 168.28651 v 84.666664 84.66666 H 83.619839 -1.0468238 Z m 65.1455028,48.61719 0.0743,-3.24115 3.24115,-0.0743 3.24114,-0.0743 v -3.16685 -3.16686 h 3.175 3.175 v -3.16686 -3.16685 l 3.24115,-0.0743 3.24114,-0.0743 0.0743,-3.24115 0.0743,-3.24114 h 3.16686 3.16685 v -3.175 -3.175 h 3.3073 3.30729 v -3.3073 -3.30729 h 3.175 3.175001 v -3.175 -3.175 h 3.30729 3.30729 v -3.30729 -3.30729 h 3.175 3.175 v -3.175 -3.175 h 3.30729 3.30729 v -3.175 -3.175 h 3.175 3.175 v -3.30729 -3.30729 h -9.65729 -9.65729 v -3.175 -3.175 h 3.175 3.175 v -3.30729 -3.30729 h 3.30729 3.30729 v -3.30729 -3.30729 h 3.175 3.175 v -3.175 -3.175 h 3.3073 3.30729 v -3.30726 -3.30729 H 96.584429 57.690675 v 6.47415 6.47415 l -3.241146,0.0743 -3.241146,0.0743 -0.07077,6.54844 -0.07077,6.54843 h -3.170378 -3.170377 v 6.48229 6.48229 h -3.175 -3.175 v 6.35 6.35 h -3.307292 -3.307291 v 6.48229 6.48229 h 19.446874 19.44688 v 6.47415 6.47415 l -3.24114,0.0743 -3.24115,0.0743 -0.0708,6.41614 -0.0709,6.41615 h -3.170303 -3.170295 v 6.48229 6.48229 h 3.166856 3.166862 z M 57.690675,177.9797 v -3.16685 l -3.241146,-0.0743 -3.241146,-0.0743 -0.07454,-3.10886 -0.07454,-3.10885 h 3.315686 3.31569 v -6.48229 -6.48229 h 3.170378 3.170372 l 0.0708,-6.54844 0.0708,-6.54843 22.68802,-0.0676 22.688021,-0.0676 v 3.30877 3.30877 h -3.30729 -3.30729 v 3.30729 3.30729 h -3.175001 -3.175 v 3.175 3.175 h -3.30729 -3.3073 v 3.30729 3.30729 h -3.175 -3.175 v 3.175 3.175 h 3.175 3.175 v 3.175 3.175 h -3.175 -3.175 v -3.175 -3.175 h -3.30729 -3.30729 v 3.175 3.175 h -3.175 -3.175 v -3.175 -3.175 h -3.30729 -3.30729 v 3.175 3.175 h -3.175 -3.175 z m 6.350004,-6.35814 v -3.175 h -3.175004 -3.175 v 3.175 3.175 h 3.175 3.175004 z m 12.96458,0 v -3.175 h -3.175 -3.175 v 3.175 3.175 h 3.175 3.175 z m 19.57917,6.35 v -3.175 h 3.175 3.175001 v 3.175 3.175 h -3.175001 -3.175 z"
       id="path3797"
       inkscape:connector-curvature="0" />
  </g>
</svg>
