<?xml version="1.0" encoding="UTF-8" standalone="no"?>
<!-- Created with Inkscape (http://www.inkscape.org/) -->

<svg
   xmlns:dc="http://purl.org/dc/elements/1.1/"
   xmlns:cc="http://creativecommons.org/ns#"
   xmlns:rdf="http://www.w3.org/1999/02/22-rdf-syntax-ns#"
   xmlns:svg="http://www.w3.org/2000/svg"
   xmlns="http://www.w3.org/2000/svg"
   xmlns:sodipodi="http://sodipodi.sourceforge.net/DTD/sodipodi-0.dtd"
   xmlns:inkscape="http://www.inkscape.org/namespaces/inkscape"
   width="169.33333mm"
   height="169.33333mm"
   viewBox="0 0 169.33333 169.33333"
   version="1.1"
   id="svg8"
   sodipodi:docname="soundcloud.svg"
   inkscape:version="0.92.4 (5da689c313, 2019-01-14)">
  <defs
     id="defs2" />
  <sodipodi:namedview
     id="base"
     pagecolor="#f0f0ed"
     bordercolor="#666666"
     borderopacity="1.0"
     inkscape:pageopacity="0"
     inkscape:pageshadow="2"
     inkscape:zoom="1.4"
     inkscape:cx="536.08904"
     inkscape:cy="561.55054"
     inkscape:document-units="mm"
     inkscape:current-layer="layer1"
     showgrid="false"
     inkscape:window-width="1440"
     inkscape:window-height="847"
     inkscape:window-x="1358"
     inkscape:window-y="-8"
     inkscape:window-maximized="1" />
  <metadata
     id="metadata5">
    <rdf:RDF>
      <cc:Work
         rdf:about="">
        <dc:format>image/svg+xml</dc:format>
        <dc:type
           rdf:resource="http://purl.org/dc/dcmitype/StillImage" />
        <dc:title></dc:title>
      </cc:Work>
    </rdf:RDF>
  </metadata>
  <g
     inkscape:label="Layer 1"
     inkscape:groupmode="layer"
     id="layer1"
     transform="translate(78.733792,4.5383693)">
    <path
       style="fill:#fea22e;stroke-width:0.26458332"
       d="M -78.733792,80.128296 V -4.5383693 H 5.9328727 90.599537 V 80.128296 164.79496 H 5.9328727 -78.733792 Z M 65.199538,105.36781 C 72.640466,103.04398 77.554106,95.688309 77.018029,87.675649 76.835643,84.949592 76.334589,83.06474 75.187535,80.789754 71.495143,73.466532 63.24639,69.801349 55.738901,72.148114 L 54.083472,72.665583 53.9685,72.097462 C 53.905265,71.784994 53.711209,70.6959 53.537264,69.677255 52.562203,63.967107 49.741186,58.441189 45.547202,54.026016 43.002841,51.347467 40.741868,49.688566 37.285997,47.964679 30.634888,44.646915 23.893445,44.115394 15.768295,46.268147 c -3.730881,0.988491 -7.7963263,2.44771 -8.9991063,3.230067 -3.967967,2.580995 -5.039947,3.415104 -6.35965205,4.948441 -0.823412,0.956707 -1.77268995,2.185361 -2.10950895,2.730344 -0.336818,0.544984 -0.787453,0.990881 -1.001411,0.990881 -0.213958,0 -1.603232,-0.23131 -3.0872749,-0.514019 -6.0822948,-1.15868 -7.7900318,-1.306889 -10.4643558,-0.90817 -4.839178,0.72148 -8.427177,2.324743 -11.496259,5.137002 -2.442598,2.238195 -3.84674,4.297767 -6.023636,8.835364 -1.016918,2.119693 -1.934829,3.853629 -2.039808,3.853187 -0.104976,-5.29e-4 -1.441024,-0.245954 -2.968992,-0.545586 -6.113688,-1.198886 -11.38501,0.298267 -15.484681,4.397938 -1.028931,1.02893 -2.064909,2.279899 -2.302173,2.77993 -1.377695,2.903471 -2.129603,8.67693 -1.557727,11.960881 0.486242,2.792208 2.102183,5.686943 4.495008,8.052183 1.109505,1.09672 2.403695,2.15969 2.875981,2.36217 1.257779,0.53923 3.747299,1.18473 4.962133,1.28662 0.582084,0.0488 2.010834,0.21321 3.175,0.36531 1.164167,0.15211 4.855104,0.40467 8.202083,0.56126 3.34698,0.15659 6.799792,0.31878 7.672917,0.36043 0.873125,0.0417 21.4709368,0.0216 45.772916,-0.0446 l 44.185416,-0.12028 z"
       id="path3935"
       inkscape:connector-curvature="0" />
  </g>
</svg>
