<?xml version="1.0" encoding="UTF-8" standalone="no"?>
<!-- Created with Inkscape (http://www.inkscape.org/) -->

<svg
   xmlns:dc="http://purl.org/dc/elements/1.1/"
   xmlns:cc="http://creativecommons.org/ns#"
   xmlns:rdf="http://www.w3.org/1999/02/22-rdf-syntax-ns#"
   xmlns:svg="http://www.w3.org/2000/svg"
   xmlns="http://www.w3.org/2000/svg"
   xmlns:sodipodi="http://sodipodi.sourceforge.net/DTD/sodipodi-0.dtd"
   xmlns:inkscape="http://www.inkscape.org/namespaces/inkscape"
   width="169.33333mm"
   height="169.33333mm"
   viewBox="0 0 169.33333 169.33333"
   version="1.1"
   id="svg8"
   sodipodi:docname="twitter.svg"
   inkscape:version="0.92.4 (5da689c313, 2019-01-14)">
  <defs
     id="defs2" />
  <sodipodi:namedview
     id="base"
     pagecolor="#f0f0ed"
     bordercolor="#666666"
     borderopacity="1.0"
     inkscape:pageopacity="0"
     inkscape:pageshadow="2"
     inkscape:zoom="0.98994949"
     inkscape:cx="382.15688"
     inkscape:cy="336.21621"
     inkscape:document-units="mm"
     inkscape:current-layer="layer1"
     showgrid="false"
     inkscape:window-width="1440"
     inkscape:window-height="847"
     inkscape:window-x="1358"
     inkscape:window-y="-8"
     inkscape:window-maximized="1" />
  <metadata
     id="metadata5">
    <rdf:RDF>
      <cc:Work
         rdf:about="">
        <dc:format>image/svg+xml</dc:format>
        <dc:type
           rdf:resource="http://purl.org/dc/dcmitype/StillImage" />
        <dc:title></dc:title>
      </cc:Work>
    </rdf:RDF>
  </metadata>
  <g
     inkscape:label="Layer 1"
     inkscape:groupmode="layer"
     id="layer1"
     transform="translate(30.812446,-60.099685)">
    <path
       style="fill:#65bef5;stroke-width:0.26458332"
       d="M -30.812446,144.76635 V 60.099685 h 84.666665 84.666661 v 84.666665 84.66666 H 53.854219 -30.812446 Z m 73.95104,45.40613 c 22.538872,-3.37204 40.51051,-17.09292 49.985776,-38.16285 3.690591,-8.20669 5.577569,-16.37993 5.887119,-25.49953 l 0.15717,-4.63021 1.221431,-1.05611 c 2.21688,-1.91684 7.8222,-7.65432 8.60669,-8.80962 1.15855,-1.70617 0.72192,-1.87574 -2.26871,-0.8811 -2.79277,0.92884 -6.801781,1.85518 -7.299371,1.68663 -0.36692,-0.12428 -0.45981,-0.86167 -0.10854,-0.86167 0.1222,0 1.092451,-0.85657 2.156101,-1.90349 1.92777,-1.89743 4.2242,-5.14833 5.15641,-7.29956 0.778,-1.79537 0.33565,-1.87562 -2.59234,-0.47033 -2.84641,1.36615 -8.232609,3.2405 -10.013408,3.48459 -1.130681,0.15497 -1.251225,0.10108 -3.145576,-1.40627 -3.320317,-2.64201 -5.952503,-3.9887 -9.820793,-5.024549 -2.401893,-0.643181 -8.183859,-0.628086 -10.647529,0.0278 -8.034102,2.138839 -14.133303,7.717419 -16.70527,15.279319 -0.949278,2.79098 -1.274223,5.44131 -1.097669,8.95279 0.116136,2.3098 0.07258,3.20553 -0.165476,3.4031 -0.712356,0.59121 -9.506775,-0.85515 -15.162821,-2.49372 -10.113541,-2.92992 -20.718515,-9.47019 -28.4627307,-17.55346 -1.6852849,-1.75907 -3.2523458,-3.19831 -3.482356,-3.19831 -0.5839672,0 -1.0501894,0.82422 -1.9949689,3.52683 -2.88757512,8.26012 -0.7526813,17.36954 5.5905879,23.8546 1.1371307,1.16255 2.0091657,2.26577 1.9378557,2.4516 -0.206881,0.53912 -3.5897768,-0.15875 -6.7856391,-1.39982 -0.6702531,-0.26029 -1.4143937,-0.39813 -1.6536458,-0.30632 -1.120648,0.43003 -0.05229,5.81671 1.951765,9.84082 2.3594483,4.73774 5.7299459,8.13096 10.3975449,10.46764 1.435182,0.71847 2.76266,1.30632 2.949948,1.30632 0.187291,0 0.475636,0.1628 0.640771,0.36177 0.229491,0.27652 0.197284,0.44722 -0.136676,0.72438 -0.323612,0.26857 -1.353278,0.35967 -3.970557,0.35128 -4.143147,-0.0133 -4.243689,0.0619 -3.182673,2.37945 1.491417,3.25768 4.53948,6.94548 7.451331,9.01524 2.96886,2.11028 5.796743,3.30408 9.656392,4.07648 1.594209,0.31904 2.271463,0.57143 2.328537,0.86779 0.186571,0.96878 -7.67297,5.27497 -12.662898,6.93792 -5.136081,1.71165 -12.4769395,2.78059 -16.6998957,2.43175 -2.10875036,-0.17419 -2.6737866,0.0388 -2.06120738,0.77688 0.50093296,0.60359 7.78683288,4.15212 10.70782238,5.21515 5.5097407,2.00515 10.9161147,3.29638 16.2718747,3.88631 3.1628,0.34838 13.866076,0.12916 17.065624,-0.34952 z"
       id="path3820"
       inkscape:connector-curvature="0" />
  </g>
</svg>
